<svg width="32" height="32" viewBox="0 0 32 32" fill="none" xmlns="http://www.w3.org/2000/svg">
<path d="M3.1413 23.4013C3.1413 23.0798 3.19077 22.783 3.2897 22.5109C3.38863 22.2141 3.52467 21.9791 3.6978 21.806C3.8462 21.6329 4.01933 21.4845 4.2172 21.3608C4.39033 21.2371 4.57583 21.1506 4.7737 21.1011C4.94683 21.0516 5.1076 21.0145 5.256 20.9898C5.4044 20.9403 5.52807 20.9156 5.627 20.9156H5.7754H26.3659C26.9595 20.9156 27.4665 21.0145 27.887 21.2124C28.2827 21.3855 28.5548 21.6081 28.7032 21.8802C28.8516 22.1275 28.9505 22.3872 29 22.6593C29.0742 22.9066 29.0989 23.1292 29.0742 23.3271L29.0371 23.5868C29.0371 24.0567 28.9258 24.4525 28.7032 24.774C28.4806 25.0955 28.2085 25.3305 27.887 25.4789C27.5407 25.6273 27.2068 25.7386 26.8853 25.8128C26.5638 25.887 26.2917 25.9241 26.0691 25.9241H25.6981H5.4044C4.885 25.9241 4.45217 25.8375 4.1059 25.6644C3.75963 25.4913 3.52467 25.281 3.401 25.0337C3.27733 24.7864 3.19077 24.539 3.1413 24.2917C3.09183 24.0444 3.07947 23.8341 3.1042 23.661L3.1413 23.4013ZM3.1413 16.1914C3.1413 15.8699 3.19077 15.5731 3.2897 15.301C3.38863 15.0042 3.52467 14.7693 3.6978 14.5961C3.8462 14.423 4.01933 14.2746 4.2172 14.1509C4.39033 14.0273 4.57583 13.9407 4.7737 13.8912C4.94683 13.8418 5.1076 13.8047 5.256 13.7799C5.4044 13.7305 5.52807 13.7057 5.627 13.7057H5.7754L26.3659 13.7057C26.9595 13.7057 27.4665 13.8047 27.887 14.0025C28.2827 14.1757 28.5548 14.3983 28.7032 14.6703C28.8516 14.9177 28.9505 15.1774 29 15.4494C29.0742 15.6968 29.0989 15.9194 29.0742 16.1172L29.0371 16.3769C29.0371 16.8469 28.9258 17.2426 28.7032 17.5641C28.4806 17.8857 28.2085 18.1206 27.887 18.269C27.5407 18.4174 27.2068 18.5287 26.8853 18.6029C26.5638 18.6771 26.2917 18.7142 26.0691 18.7142H25.6981H5.4044C4.885 18.7142 4.45217 18.6277 4.1059 18.4545C3.75963 18.2814 3.52467 18.0712 3.401 17.8238C3.27733 17.5765 3.19077 17.3292 3.1413 17.0818C3.09183 16.8345 3.07947 16.6243 3.1042 16.4511L3.1413 16.1914ZM3.1413 8.98157C3.1413 8.66004 3.19077 8.36324 3.2897 8.09117C3.38863 7.79437 3.52467 7.55941 3.6978 7.38627C3.8462 7.21314 4.01933 7.06474 4.2172 6.94107C4.39033 6.81741 4.57583 6.73084 4.7737 6.68137C4.94683 6.63191 5.1076 6.59481 5.256 6.57007C5.4044 6.52061 5.52807 6.49587 5.627 6.49587H5.7754H26.3659C26.9595 6.49587 27.4665 6.59481 27.887 6.79267C28.2827 6.96581 28.5548 7.18841 28.7032 7.46047C28.8516 7.70781 28.9505 7.96751 29 8.23957C29.0742 8.48691 29.0989 8.70951 29.0742 8.90737L29.0371 9.16707C29.0371 9.63701 28.9258 10.0327 28.7032 10.3543C28.4806 10.6758 28.2085 10.9108 27.887 11.0592C27.5407 11.2076 27.2068 11.3189 26.8853 11.3931C26.5638 11.4673 26.2917 11.5044 26.0691 11.5044H25.6981L5.4044 11.5044C4.885 11.5044 4.45217 11.4178 4.1059 11.2447C3.75963 11.0715 3.52467 10.8613 3.401 10.614C3.27733 10.3666 3.19077 10.1193 3.1413 9.87197C3.09183 9.62464 3.07947 9.41441 3.1042 9.24127L3.1413 8.98157Z" fill="black"/>
</svg>
